# xmcd CD database file
#
# Track frame offsets:
#	150
#	21436
#	44147
#	57090
#	81900
#	104587
#	118363
#	137356
#	163290
#	179757
#	200231
#
# Disc length: 2813 seconds
#
# Revision: 0
# Processed by: cddbd v1.5PL3 Copyright (c) Steve Scherf et al.
# Submitted via: CDex 1.51
#
DISCID=af0afb0b
DTITLE=Septeto - En Vivo Con Cafe (Cuba)
DYEAR=2000
DGENRE=Salsa
TTITLE0=Bilongo
TTITLE1=No Hace Falta
TTITLE2=Besame Mucho
TTITLE3=Lagrimas Negras
TTITLE4=Guantanamera
TTITLE5=Son De La Loma
TTITLE6=Yolanda
TTITLE7=Baile Del Suavito
TTITLE8=Cachita
TTITLE9=El Son Hay Que Llevarlo En El Corazon
TTITLE10=Bonus 
EXTD=YEAR: 2000
EXTT0=
EXTT1=
EXTT2=
EXTT3=
EXTT4=
EXTT5=
EXTT6=
EXTT7=
EXTT8=
EXTT9=
EXTT10=
PLAYORDER=
